<svg class="svg-icon" style="width: 1em; height: 1em;vertical-align: middle;fill: currentColor;overflow: hidden;" viewBox="0 0 1024 1024" version="1.1" xmlns="http://www.w3.org/2000/svg"><path d="M128 448c-17.7 0-32-14.3-32-32V192c0-53 43-96 96-96h224c17.7 0 32 14.3 32 32s-14.3 32-32 32H192c-17.7 0-32 14.3-32 32v224c0 17.7-14.3 32-32 32zM896 448c-17.7 0-32-14.3-32-32V192c0-17.7-14.3-32-32-32H608c-17.7 0-32-14.3-32-32s14.3-32 32-32h224c53 0 96 43 96 96v224c0 17.7-14.3 32-32 32zM128 576c-17.7 0-32 14.3-32 32v224c0 53 43 96 96 96h224c17.7 0 32-14.3 32-32s-14.3-32-32-32H192c-17.7 0-32-14.3-32-32V608c0-17.7-14.3-32-32-32zM896 576c-17.7 0-32 14.3-32 32v224c0 17.7-14.3 32-32 32H608c-17.7 0-32 14.3-32 32s14.3 32 32 32h224c53 0 96-43 96-96V608c0-17.7-14.3-32-32-32z" fill="#999999" /></svg>